<svg width="29" height="25" viewBox="0 0 29 25" fill="none" xmlns="http://www.w3.org/2000/svg">
<path d="M20.2698 4.05841L24.8111 8.46357C25.0024 8.64915 25.0024 8.95194 24.8111 9.13753L13.8153 19.8037L9.14306 20.3067C8.51875 20.3751 7.9901 19.8623 8.06059 19.2567L8.57917 14.7246L19.575 4.05841C19.7663 3.87283 20.0785 3.87283 20.2698 4.05841ZM28.426 2.94003L25.9691 0.556749C25.2038 -0.185583 23.9602 -0.185583 23.1899 0.556749L21.4076 2.2856C21.2163 2.47119 21.2163 2.77398 21.4076 2.95956L25.949 7.36472C26.1403 7.5503 26.4524 7.5503 26.6438 7.36472L28.426 5.63587C29.1913 4.88865 29.1913 3.68236 28.426 2.94003ZM19.3333 16.9027V21.8744H3.22222V6.24634H14.792C14.9531 6.24634 15.1042 6.18285 15.22 6.07541L17.2339 4.1219C17.6165 3.75073 17.3446 3.12073 16.8059 3.12073H2.41667C1.08247 3.12073 0 4.17074 0 5.46493V22.6558C0 23.95 1.08247 25 2.41667 25H20.1389C21.4731 25 22.5556 23.95 22.5556 22.6558V14.9492C22.5556 14.4266 21.9061 14.1678 21.5234 14.5341L19.5096 16.4876C19.3988 16.5999 19.3333 16.7464 19.3333 16.9027Z" fill="black"/>
</svg>
